# xmcd
#
# Track frame offsets: 
#        150
#        19743
#        27848
#        40116
#        45457
#        58324
#        65471
#        77496
#        88002
#        100795
#        116125
#        136688
#        150841
#
# Disc length: 2076 seconds
#
# Revision: 6
# Processed by: cddbd v1.5.2PL0 Copyright (c) Steve Scherf et al.
# Submitted via: ExactAudioCopyFreeDBPlugin 1.0
#
DISCID=97081a0d
DTITLE=John Denver and The Muppets / A Christmas Together [LaserLight 
DTITLE=Digital]
DYEAR=2006
DGENRE=Holiday
TTITLE0=Twelve Days of Christmas
TTITLE1=Have Yourself a Merry Little Christmas
TTITLE2=The Peace Carol
TTITLE3=Christmas is Coming
TTITLE4=A Baby Just Like You
TTITLE5=Deck the Halls
TTITLE6=When River Meets the Sea
TTITLE7=Little Saint Nick
TTITLE8=Noël:  Christmas Eve, 1913
TTITLE9=The Christmas Wish
TTITLE10=Medley:  Alfie, The Christmas Tree - Carol for a Christmas Tr
TTITLE10=ee - It's in Everyone of Us
TTITLE11=Silent Night, Holy Night
TTITLE12=We Wish You a Merry Christmas
EXTD=YEAR: 1978
EXTT0=
EXTT1=
EXTT2=
EXTT3=
EXTT4=
EXTT5=
EXTT6=
EXTT7=
EXTT8=
EXTT9=
EXTT10=
EXTT11=
EXTT12=
PLAYORDER=
.
